<?xml version="1.0" encoding="UTF-8" standalone="no"?>
<!-- Uploaded to: SVG Repo, www.svgrepo.com, Generator: SVG Repo Mixer Tools -->

<svg
   width="40px"
   height="40px"
   viewBox="0 0 40 40"
   class="icon"
   version="1.1"
   id="svg12"
   sodipodi:docname="analysis.svg"
   inkscape:version="1.1.2 (0a00cf5339, 2022-02-04)"
   xmlns:inkscape="http://www.inkscape.org/namespaces/inkscape"
   xmlns:sodipodi="http://sodipodi.sourceforge.net/DTD/sodipodi-0.dtd"
   xmlns="http://www.w3.org/2000/svg"
   xmlns:svg="http://www.w3.org/2000/svg">
  <defs
     id="defs16" />
  <sodipodi:namedview
     id="namedview14"
     pagecolor="#ffffff"
     bordercolor="#666666"
     borderopacity="1.0"
     inkscape:pageshadow="2"
     inkscape:pageopacity="0.0"
     inkscape:pagecheckerboard="0"
     showgrid="false"
     inkscape:zoom="10.872745"
     inkscape:cx="17.566861"
     inkscape:cy="23.637085"
     inkscape:window-width="1920"
     inkscape:window-height="1000"
     inkscape:window-x="0"
     inkscape:window-y="0"
     inkscape:window-maximized="1"
     inkscape:current-layer="svg12" />
  <path
     d="M 10.732474,36.399006 H 7.982899 c -1.9297021,0 -3.4994596,-1.661613 -3.4994596,-3.704234 V 20.020997 c 0,-2.042622 1.5697575,-3.704236 3.4994596,-3.704236 h 2.749575 c 1.929702,0 3.49946,1.661614 3.49946,3.704236 v 12.673775 c 0,2.042621 -1.569758,3.704234 -3.49946,3.704234 z M 7.987898,18.433467 c -0.8248727,0 -1.499768,0.714389 -1.499768,1.58753 v 12.673775 c 0,0.873141 0.6748953,1.58753 1.499768,1.58753 h 2.749576 c 0.824872,0 1.499768,-0.714389 1.499768,-1.58753 V 20.020997 c 0,-0.873141 -0.674896,-1.58753 -1.499768,-1.58753 z"
     fill="#005bff"
     id="path2"
     style="stroke-width:0.0514342" />
  <path
     d="m 36.178544,2.4311723 h -2.749575 c -0.824873,0 -1.499769,0.7143883 -1.499769,1.5875293 V 32.694772 c 0,0.873141 0.674896,1.58753 1.499769,1.58753 h 2.749575 c 0.824873,0 1.499769,-0.714389 1.499769,-1.58753 V 4.0187016 c 0,-0.873141 -0.674896,-1.5875293 -1.499769,-1.5875293 z M 23.45551,8.9400426 h -2.749576 c -0.824873,0 -1.499769,0.7143877 -1.499769,1.5875294 v 22.1672 c 0,0.873141 0.674896,1.58753 1.499769,1.58753 h 2.749576 c 0.824873,0 1.499768,-0.714389 1.499768,-1.58753 v -22.1672 c 0,-0.8731417 -0.674895,-1.5875294 -1.499768,-1.5875294 z M 10.732474,18.412301 H 7.982899 c -0.8248725,0 -1.4997684,0.714387 -1.4997684,1.587527 v 12.694944 c 0,0.873141 0.6748959,1.58753 1.4997684,1.58753 h 2.749575 c 0.824873,0 1.499769,-0.714389 1.499769,-1.58753 V 19.999828 c 0,-0.87314 -0.669897,-1.587527 -1.499769,-1.587527 z"
     fill="#ffffff"
     id="path4"
     style="stroke-width:0.0514342" />
  <path
     d="m 36.178544,0.31446677 h -2.749575 c -1.929702,0 -3.49946,1.66161393 -3.49946,3.70423483 V 15.020279 c -0.914858,-0.455092 -1.919703,-0.751431 -2.974541,-0.846682 v -3.640734 c 0,-2.0426201 -1.569757,-3.7042346 -3.499458,-3.7042346 h -2.749576 c -1.929702,0 -3.499459,1.6616145 -3.499459,3.7042346 v 22.1672 c 0,2.042621 1.569757,3.704235 3.499459,3.704235 h 2.749576 c 1.909705,0 3.464463,-1.624571 3.499458,-3.635441 1.054838,-0.09525 2.059683,-0.391591 2.974541,-0.846682 v 0.777888 c 0,2.042621 1.569758,3.704235 3.49946,3.704235 h 2.749575 c 1.929701,0 3.499459,-1.661614 3.499459,-3.704235 V 4.0187016 c 0,-2.0426209 -1.574756,-3.70423483 -3.499459,-3.70423483 z M 31.9292,19.576488 c 0.679895,1.121855 1.074834,2.45538 1.074834,3.889447 0,1.428777 -0.394939,2.762301 -1.074834,3.889446 z m -12.55806,3.889447 c 0,-3.534899 2.409628,-6.482411 5.584138,-7.096256 V 30.562192 C 21.780768,29.948346 19.37114,27.000833 19.37114,23.465935 Z M 20.705934,8.9400426 h 2.749576 c 0.824873,0 1.499768,0.7143877 1.499768,1.5875294 v 3.698943 c -2.32964,0.349256 -4.369326,1.661614 -5.749113,3.545481 v -7.244424 c 0,-0.8731417 0.674896,-1.5875294 1.499769,-1.5875294 z M 23.45551,34.282302 h -2.749576 c -0.824873,0 -1.499769,-0.714389 -1.499769,-1.58753 v -3.534899 c 1.374788,1.883868 3.414473,3.201518 5.749113,3.545483 -0.005,0.87314 -0.674895,1.576946 -1.499768,1.576946 z m 3.499458,-3.646027 V 16.295596 c 1.089833,0.127001 2.099677,0.529174 2.974541,1.14302 v 12.05993 c -0.874864,0.608552 -1.884708,1.010727 -2.974541,1.137729 z m 4.974232,2.058497 v -0.894308 l 2.329641,2.481838 h -0.829872 c -0.829872,0 -1.499769,-0.709097 -1.499769,-1.58753 z m 5.749113,0 c 0,0.597969 -0.314952,1.121854 -0.779881,1.391734 l -4.13936,-4.402748 c 1.394784,-1.65103 2.244653,-3.831237 2.244653,-6.217823 0,-2.825802 -1.194814,-5.365848 -3.074525,-7.075088 V 4.0187016 c 0,-0.873141 0.674896,-1.5875293 1.499769,-1.5875293 h 2.749575 c 0.824873,0 1.499769,0.7143883 1.499769,1.5875293 z m 1.369787,6.969253 h -0.499922 c -0.274958,0 -0.499923,-0.23813 -0.499923,-0.529176 0,-0.291047 0.224965,-0.529177 0.499923,-0.529177 H 39.0481 c 0.274958,0 0.499924,0.23813 0.499924,0.529177 0,0.291046 -0.219967,0.529176 -0.499924,0.529176 z m -2.499613,0 h -0.499923 c -0.274957,0 -0.499922,-0.23813 -0.499922,-0.529176 0,-0.291047 0.224965,-0.529177 0.499922,-0.529177 h 0.499923 c 0.274957,0 0.499923,0.23813 0.499923,0.529177 0,0.291046 -0.219966,0.529176 -0.499923,0.529176 z m -2.499615,0 H 33.54895 c -0.274958,0 -0.499922,-0.23813 -0.499922,-0.529176 0,-0.291047 0.224964,-0.529177 0.499922,-0.529177 h 0.499922 c 0.274958,0 0.499924,0.23813 0.499924,0.529177 0,0.291046 -0.219966,0.529176 -0.499924,0.529176 z m -2.499614,0 h -0.499922 c -0.274958,0 -0.499923,-0.23813 -0.499923,-0.529176 0,-0.291047 0.224965,-0.529177 0.499923,-0.529177 h 0.499922 c 0.274958,0 0.499924,0.23813 0.499924,0.529177 0,0.291046 -0.219966,0.529176 -0.499924,0.529176 z m -2.499612,0 h -0.499924 c -0.274957,0 -0.499922,-0.23813 -0.499922,-0.529176 0,-0.291047 0.224965,-0.529177 0.499922,-0.529177 h 0.499924 c 0.274956,0 0.499922,0.23813 0.499922,0.529177 0,0.291046 -0.219966,0.529176 -0.499922,0.529176 z m -2.499614,0 h -0.499924 c -0.274957,0 -0.499922,-0.23813 -0.499922,-0.529176 0,-0.291047 0.224965,-0.529177 0.499922,-0.529177 h 0.499924 c 0.274956,0 0.499921,0.23813 0.499921,0.529177 0,0.291046 -0.219965,0.529176 -0.499921,0.529176 z m -2.499615,0 h -0.499923 c -0.274957,0 -0.499922,-0.23813 -0.499922,-0.529176 0,-0.291047 0.224965,-0.529177 0.499922,-0.529177 h 0.499923 c 0.274959,0 0.499923,0.23813 0.499923,0.529177 0,0.291046 -0.219966,0.529176 -0.499923,0.529176 z m -2.499614,0 H 21.05088 c -0.274956,0 -0.499923,-0.23813 -0.499923,-0.529176 0,-0.291047 0.224967,-0.529177 0.499923,-0.529177 h 0.499923 c 0.274958,0 0.499923,0.23813 0.499923,0.529177 0,0.291046 -0.219966,0.529176 -0.499923,0.529176 z m -2.499613,0 h -0.499923 c -0.274957,0 -0.499923,-0.23813 -0.499923,-0.529176 0,-0.291047 0.224966,-0.529177 0.499923,-0.529177 h 0.499923 c 0.274957,0 0.499922,0.23813 0.499922,0.529177 0,0.291046 -0.219965,0.529176 -0.499922,0.529176 z m -2.499615,0 h -0.499921 c -0.274959,0 -0.499924,-0.23813 -0.499924,-0.529176 0,-0.291047 0.224965,-0.529177 0.499924,-0.529177 h 0.499921 c 0.274958,0 0.499923,0.23813 0.499923,0.529177 0,0.291046 -0.219966,0.529176 -0.499923,0.529176 z m -2.499614,0 h -0.499922 c -0.274958,0 -0.499924,-0.23813 -0.499924,-0.529176 0,-0.291047 0.224966,-0.529177 0.499924,-0.529177 h 0.499922 c 0.274958,0 0.499923,0.23813 0.499923,0.529177 0,0.291046 -0.219966,0.529176 -0.499923,0.529176 z m -2.499613,0 h -0.499923 c -0.274957,0 -0.499923,-0.23813 -0.499923,-0.529176 0,-0.291047 0.224966,-0.529177 0.499923,-0.529177 h 0.499923 c 0.274957,0 0.499922,0.23813 0.499922,0.529177 0,0.291046 -0.219965,0.529176 -0.499922,0.529176 z m -2.4996142,0 h -0.499923 c -0.2749575,0 -0.4999226,-0.23813 -0.4999226,-0.529176 0,-0.291047 0.2249651,-0.529177 0.4999226,-0.529177 h 0.499923 c 0.2749575,0 0.4999224,0.23813 0.4999224,0.529177 0,0.291046 -0.219966,0.529176 -0.4999224,0.529176 z m -2.499614,0 H 6.0531969 c -0.2749576,0 -0.4999226,-0.23813 -0.4999226,-0.529176 0,-0.291047 0.224965,-0.529177 0.4999226,-0.529177 h 0.4999229 c 0.2749576,0 0.4999225,0.23813 0.4999225,0.529177 0,0.291046 -0.219966,0.529176 -0.4999225,0.529176 z m -2.499614,0 H 3.553583 c -0.2749575,0 -0.4999228,-0.23813 -0.4999228,-0.529176 0,-0.291047 0.2249653,-0.529177 0.4999228,-0.529177 h 0.4999228 c 0.2749575,0 0.4999227,0.23813 0.4999227,0.529177 0,0.291046 -0.2199659,0.529176 -0.4999227,0.529176 z m -2.4996139,0 H 1.0539691 c -0.27495755,0 -0.49992281,-0.23813 -0.49992281,-0.529176 0,-0.291047 0.22496526,-0.529177 0.49992281,-0.529177 h 0.4999228 c 0.2749575,0 0.4999228,0.23813 0.4999228,0.529177 0,0.291046 -0.2199661,0.529176 -0.4999228,0.529176 z M 0.83400306,37.780158 c -0.27495754,0 -0.49992279,-0.238131 -0.49992279,-0.529178 v -0.529176 c 0,-0.291047 0.22496525,-0.529176 0.49992279,-0.529176 0.27495754,0 0.49992274,0.238129 0.49992274,0.529176 v 0.529176 c 0,0.291047 -0.2249652,0.529178 -0.49992274,0.529178 z m 0,-2.645883 c -0.27495754,0 -0.49992279,-0.23813 -0.49992279,-0.529177 v -0.529176 c 0,-0.291047 0.22496525,-0.529177 0.49992279,-0.529177 0.27495754,0 0.49992274,0.23813 0.49992274,0.529177 v 0.529176 c 0,0.291047 -0.2249652,0.529177 -0.49992274,0.529177 z m 0,-2.645882 c -0.27495754,0 -0.49992279,-0.23813 -0.49992279,-0.529177 v -0.529175 c 0,-0.291049 0.22496525,-0.529177 0.49992279,-0.529177 0.27495754,0 0.49992274,0.238128 0.49992274,0.529177 v 0.529175 c 0,0.291047 -0.2249652,0.529177 -0.49992274,0.529177 z m 0,-2.645883 c -0.27495754,0 -0.49992279,-0.238129 -0.49992279,-0.529176 v -0.529176 c 0,-0.291047 0.22496525,-0.529177 0.49992279,-0.529177 0.27495754,0 0.49992274,0.23813 0.49992274,0.529177 v 0.529176 c 0,0.291047 -0.2249652,0.529176 -0.49992274,0.529176 z m 0,-2.645881 c -0.27495754,0 -0.49992279,-0.23813 -0.49992279,-0.529177 v -0.529176 c 0,-0.291047 0.22496525,-0.529176 0.49992279,-0.529176 0.27495754,0 0.49992274,0.238129 0.49992274,0.529176 v 0.529176 c 0,0.291047 -0.2249652,0.529177 -0.49992274,0.529177 z m 0,-2.645883 c -0.27495754,0 -0.49992279,-0.238129 -0.49992279,-0.529175 v -0.529177 c 0,-0.291047 0.22496525,-0.529176 0.49992279,-0.529176 0.27495754,0 0.49992274,0.238129 0.49992274,0.529176 v 0.529177 c 0,0.291046 -0.2249652,0.529175 -0.49992274,0.529175 z m 0,-2.645882 c -0.27495754,0 -0.49992279,-0.238129 -0.49992279,-0.529175 v -0.529177 c 0,-0.291048 0.22496525,-0.529178 0.49992279,-0.529178 0.27495754,0 0.49992274,0.23813 0.49992274,0.529178 v 0.529177 c 0,0.291046 -0.2249652,0.529175 -0.49992274,0.529175 z m 0,-2.645881 c -0.27495754,0 -0.49992279,-0.23813 -0.49992279,-0.529177 V 18.20063 c 0,-0.291047 0.22496525,-0.529177 0.49992279,-0.529177 0.27495754,0 0.49992274,0.23813 0.49992274,0.529177 v 0.529176 c 0,0.291047 -0.2249652,0.529177 -0.49992274,0.529177 z m 0,-2.645883 c -0.27495754,0 -0.49992279,-0.238128 -0.49992279,-0.529175 v -0.529177 c 0,-0.291046 0.22496525,-0.529177 0.49992279,-0.529177 0.27495754,0 0.49992274,0.238131 0.49992274,0.529177 v 0.529177 c 0,0.291047 -0.2249652,0.529175 -0.49992274,0.529175 z m 0,-2.645882 c -0.27495754,0 -0.49992279,-0.238129 -0.49992279,-0.529176 v -0.529178 c 0,-0.291046 0.22496525,-0.529174 0.49992279,-0.529174 0.27495754,0 0.49992274,0.238128 0.49992274,0.529174 v 0.529178 c 0,0.291047 -0.2249652,0.529176 -0.49992274,0.529176 z m 0,-2.645882 c -0.27495754,0 -0.49992279,-0.238129 -0.49992279,-0.529175 v -0.529178 c 0,-0.2910467 0.22496525,-0.5291757 0.49992279,-0.5291757 0.27495754,0 0.49992274,0.238129 0.49992274,0.5291757 v 0.529178 c 0,0.291046 -0.2249652,0.529175 -0.49992274,0.529175 z m 0,-2.6458813 c -0.27495754,0 -0.49992279,-0.2381301 -0.49992279,-0.5291768 V 7.6171016 c 0,-0.2910471 0.22496525,-0.5291766 0.49992279,-0.5291766 0.27495754,0 0.49992274,0.2381295 0.49992274,0.5291766 v 0.5291763 c 0,0.2910467 -0.2249652,0.5291768 -0.49992274,0.5291768 z m 0,-2.6458826 c -0.27495754,0 -0.49992279,-0.2381294 -0.49992279,-0.5291765 V 4.9712194 c 0,-0.2910473 0.22496525,-0.5291766 0.49992279,-0.5291766 0.27495754,0 0.49992274,0.2381293 0.49992274,0.5291766 v 0.5291762 c 0,0.2910471 -0.2249652,0.5291765 -0.49992274,0.5291765 z"
     fill="#005bff"
     id="path6"
     style="stroke-width:0.0514342" />
  <path
     d="m 26.190086,16.25326 c -3.759419,0 -6.818946,3.238561 -6.818946,7.217966 0,3.979409 3.059527,7.212675 6.818946,7.212675 3.75942,0 6.818948,-3.238559 6.818948,-7.217966 0,-3.979406 -3.059528,-7.212675 -6.818948,-7.212675 z"
     fill="#000000"
     id="path8"
     style="stroke-width:0.0514342" />
  <path
     d="m 26.190086,17.459782 c -0.699891,0 -1.389785,0.132294 -2.039684,0.396882 -0.25996,0.105836 -0.384941,0.412759 -0.284957,0.682639 0.09999,0.275171 0.38994,0.407465 0.644901,0.30163 0.534917,-0.216962 1.099831,-0.328089 1.67974,-0.328089 2.579603,0 4.674279,2.222541 4.674279,4.9478 0,1.042477 -0.304953,2.037329 -0.874864,2.884011 -0.219967,0.328089 -0.479927,0.624428 -0.774881,0.889016 -0.209968,0.190504 -0.234964,0.523886 -0.05499,0.746139 0.09999,0.12171 0.239963,0.185212 0.37994,0.185212 0.114984,0 0.229966,-0.04233 0.324951,-0.127003 0.349946,-0.317506 0.669896,-0.677345 0.939855,-1.07952 0.694893,-1.026602 1.064836,-2.233124 1.064836,-3.503147 -0.005,-3.302061 -2.549606,-5.99557 -5.679124,-5.99557 z"
     fill="#06f3ff"
     id="path10"
     style="stroke-width:0.0514342" />
</svg>
