<?xml version="1.0" encoding="UTF-8" standalone="no"?>
<!-- Uploaded to: SVG Repo, www.svgrepo.com, Generator: SVG Repo Mixer Tools -->

<svg
   width="40px"
   height="40px"
   viewBox="0 0 40 40"
   class="icon"
   version="1.1"
   id="svg30"
   sodipodi:docname="interface.svg"
   inkscape:version="1.1.2 (0a00cf5339, 2022-02-04)"
   xmlns:inkscape="http://www.inkscape.org/namespaces/inkscape"
   xmlns:sodipodi="http://sodipodi.sourceforge.net/DTD/sodipodi-0.dtd"
   xmlns="http://www.w3.org/2000/svg"
   xmlns:svg="http://www.w3.org/2000/svg">
  <defs
     id="defs34" />
  <sodipodi:namedview
     id="namedview32"
     pagecolor="#ffffff"
     bordercolor="#666666"
     borderopacity="1.0"
     inkscape:pageshadow="0"
     inkscape:pageopacity="0.0"
     inkscape:pagecheckerboard="0"
     showgrid="false"
     inkscape:zoom="10.138977"
     inkscape:cx="21.698442"
     inkscape:cy="16.47109"
     inkscape:window-width="1920"
     inkscape:window-height="1000"
     inkscape:window-x="0"
     inkscape:window-y="0"
     inkscape:window-maximized="1"
     inkscape:current-layer="svg30" />
  <path
     d="M 23.340175,36.912713 H 10.624423 c -0.422148,0 -0.76539,0.501965 -0.76539,1.119321 0,0.617358 0.343242,1.119322 0.76539,1.119322 h 12.715752 c 0.422148,0 0.76539,-0.501964 0.76539,-1.119322 0,-0.623127 -0.343242,-1.119321 -0.76539,-1.119321 z"
     fill="#005bff"
     id="path2"
     style="stroke-width:0.0477107" />
  <path
     d="m 35.894167,35.239502 v 2.250181 h 2.173869 c -0.31957,-1.309721 -1.171759,-2.250181 -2.173869,-2.250181 z"
     fill="#e6e6e6"
     id="path4"
     style="stroke-width:0.0477107" />
  <path
     d="M 32.055375,29.729443 V 4.3023966 c 0,-0.928921 -0.516836,-1.6789814 -1.148086,-1.6789814 H 3.057309 c -0.6351958,0 -1.1480867,0.7558302 -1.1480867,1.6789814 V 29.729443 c 0,0.928921 0.5168362,1.678982 1.1480867,1.678982 h 27.84998 c 0.635195,0.0058 1.148086,-0.750061 1.148086,-1.678982 z m -1.731992,-2.423272 c 0,0.923151 -0.516837,1.678982 -1.148087,1.678982 H 4.7932477 c -0.6312505,0 -1.1480868,-0.755831 -1.1480868,-1.678982 V 6.7314383 c 0,-0.9231512 0.5168363,-1.6789816 1.1480868,-1.6789816 H 29.175296 c 0.63125,0 1.148087,0.7558304 1.148087,1.6789816 z"
     fill="#000000"
     id="path6"
     style="stroke-width:0.0477107" />
  <path
     d="M 29.175296,5.0524567 H 4.7932477 c -0.6312505,0 -1.1480868,0.7558304 -1.1480868,1.6789816 V 27.306171 c 0,0.923151 0.5168363,1.678982 1.1480868,1.678982 H 29.175296 c 0.63125,0 1.148087,-0.755831 1.148087,-1.678982 V 6.7314383 c 0,-0.9231512 -0.516837,-1.6789816 -1.148087,-1.6789816 z M 8.5294617,6.9102988 c 0,-0.092315 0.051291,-0.1615515 0.1104684,-0.1615515 h 2.4184779 c 0.06312,0 0.110469,0.075006 0.110469,0.1615515 v 1.0096965 c 0,0.092315 -0.05129,0.1615516 -0.110469,0.1615516 H 8.6399301 c -0.063121,0 -0.1104684,-0.075006 -0.1104684,-0.1615516 z M 7.3340305,6.7083594 c 0.260391,0 0.4694925,0.3057938 0.4694925,0.6865935 0,0.3808001 -0.2091015,0.686594 -0.4694925,0.686594 -0.2603907,0 -0.4694925,-0.3057939 -0.4694925,-0.686594 0,-0.3807997 0.2130471,-0.6865935 0.4694925,-0.6865935 z m -1.5386726,0 c 0.2603906,0 0.4694925,0.3057938 0.4694925,0.6865935 0,0.3808001 -0.2091019,0.686594 -0.4694925,0.686594 -0.2603911,0 -0.4694925,-0.3057939 -0.4694925,-0.686594 0,-0.3807997 0.2091014,-0.6865935 0.4694925,-0.6865935 z M 15.157591,17.191895 c 0,3.911855 -2.177814,7.096726 -4.852738,7.096726 -2.6749237,0 -4.8527378,-3.184871 -4.8527378,-7.096726 0,-3.911853 2.1778141,-7.096724 4.8527378,-7.096724 h 0.382695 v 6.537064 h 4.470043 z M 11.602862,14.959024 V 9.4951227 c 2.0634,0 3.736213,2.4463503 3.736213,5.4639013 z M 26.34256,23.550099 H 20.7915 c -0.213045,0 -0.382694,-0.248096 -0.382694,-0.55966 0,-0.311564 0.169649,-0.55966 0.382694,-0.55966 h 5.55106 c 0.213046,0 0.382695,0.248096 0.382695,0.55966 0,0.305794 -0.169649,0.55966 -0.382695,0.55966 z m 0,-4.229186 h -5.744379 c -0.213047,0 -0.382697,-0.248097 -0.382697,-0.559659 0,-0.311565 0.16965,-0.55966 0.382697,-0.55966 h 5.744379 c 0.213046,0 0.382695,0.248095 0.382695,0.55966 0,0.311562 -0.169649,0.559659 -0.382695,0.559659 z m 0,-4.234956 h -8.269381 c -0.213047,0 -0.382696,-0.248097 -0.382696,-0.559661 0,-0.311563 0.169649,-0.55966 0.382696,-0.55966 h 8.273327 c 0.213045,0 0.382694,0.248097 0.382694,0.55966 0,0.311564 -0.173594,0.559661 -0.38664,0.559661 z m 0,-4.229187 h -8.269381 c -0.213047,0 -0.382696,-0.248096 -0.382696,-0.55966 0,-0.3115641 0.169649,-0.5596604 0.382696,-0.5596604 h 8.273327 c 0.213045,0 0.382694,0.2480963 0.382694,0.5596604 0,0.311564 -0.173594,0.55966 -0.38664,0.55966 z"
     fill="#ffffff"
     id="path8"
     style="stroke-width:0.0477107" />
  <path
     d="m 9.922158,11.243339 c -2.0752363,0.282715 -3.7046516,2.844461 -3.7046516,5.948556 0,3.294496 1.8345718,5.977404 4.0873466,5.977404 2.12258,0 3.874299,-2.382885 4.06762,-5.417743 H 9.922158 Z"
     fill="#e6e6e6"
     id="path10"
     style="stroke-width:0.0477107" />
  <path
     d="m 10.687548,10.095171 h -0.382695 c -2.6749237,0 -4.8527378,3.184871 -4.8527378,7.096724 0,3.911855 2.1778141,7.096726 4.8527378,7.096726 2.674924,0 4.852738,-3.184871 4.852738,-7.096726 v -0.55966 h -4.470043 z m 3.684925,7.662154 c -0.193321,3.034861 -1.94504,5.417745 -4.06762,5.417745 -2.2527748,0 -4.0873466,-2.68291 -4.0873466,-5.977405 0,-3.104096 1.6294153,-5.665839 3.7046516,-5.948556 v 6.508216 z"
     fill="#005bff"
     id="path12"
     style="stroke-width:0.0477107" />
  <path
     d="m 11.602862,9.4951227 v 5.4639013 h 3.736213 c 0,-3.017551 -1.672813,-5.4639013 -3.736213,-5.4639013 z"
     fill="#005bff"
     id="path14"
     style="stroke-width:0.0477107" />
  <path
     d="m 5.7953579,7.3949529 m -0.4694925,0 a 0.46949251,0.68659375 0 1 0 0.938985,0 0.46949251,0.68659375 0 1 0 -0.938985,0 z"
     fill="#ffffff"
     id="path16"
     style="stroke-width:0.0477107" />
  <path
     d="m 7.3340305,7.3949529 m -0.4694925,0 a 0.46949251,0.68659375 0 1 0 0.938985,0 0.46949251,0.68659375 0 1 0 -0.938985,0 z"
     fill="#ffffff"
     id="path18"
     style="stroke-width:0.0477107" />
  <path
     d="m 8.6399301,8.0815469 h 2.4184779 c 0.06312,0 0.110469,-0.075006 0.110469,-0.1615516 V 6.9102988 c 0,-0.092315 -0.05129,-0.1615515 -0.110469,-0.1615515 H 8.6399301 c -0.063121,0 -0.1104684,0.075006 -0.1104684,0.1615515 v 1.0096965 c 0,0.092315 0.051291,0.1615516 0.1104684,0.1615516 z"
     fill="#ffffff"
     id="path20"
     style="stroke-width:0.0477107" />
  <path
     d="m 35.894167,32.995092 c -1.854297,0 -3.404807,1.932847 -3.759884,4.488822 h -4.564731 c -0.461602,0 -0.796953,-0.132704 -0.915312,-0.363491 -0.07891,-0.155782 -0.07891,-0.403879 -0.07891,-0.519272 v -2.948315 h 4.3359 c 1.479494,0 2.67887,-1.759756 2.67887,-3.917623 V 4.3023966 c 0,-2.1636356 -1.203321,-3.91762307 -2.67887,-3.91762307 H 3.057309 c -1.4794932,0 -2.67886909,1.75975697 -2.67886909,3.91762307 V 29.729443 c 0,2.163637 1.20332109,3.917624 2.67886909,3.917624 h 21.983297 v 2.954084 c 0,0.276945 0,1.113551 0.390585,1.86938 0.43004,0.830837 1.148088,1.252023 2.138361,1.252023 h 12.159462 v -1.119319 c 0,-3.092557 -1.720157,-5.608143 -3.834847,-5.608143 z M 3.057309,31.414195 c -0.6351958,0 -1.1480867,-0.755831 -1.1480867,-1.678982 V 4.3023966 c 0,-0.928921 0.5168362,-1.6789814 1.1480867,-1.6789814 h 27.84998 c 0.635195,0 1.148086,0.7558302 1.148086,1.6789814 V 29.729443 c 0,0.928921 -0.516836,1.678982 -1.148086,1.678982 H 3.057309 Z m 32.836858,6.069719 h -2.173868 c 0.315626,-1.309721 1.171759,-2.250182 2.173868,-2.250182 1.00211,0 1.858244,0.940461 2.173869,2.250182 z"
     fill="#005bff"
     id="path22"
     style="stroke-width:0.0477107" />
  <path
     d="m 26.34256,9.7374496 h -8.269381 c -0.213047,0 -0.382696,0.2480963 -0.382696,0.5596604 0,0.311564 0.169649,0.55966 0.382696,0.55966 h 8.273327 c 0.213045,0 0.382694,-0.248096 0.382694,-0.55966 0,-0.3115641 -0.173594,-0.5596604 -0.38664,-0.5596604 z"
     fill="#005bff"
     id="path24"
     style="stroke-width:0.0477107" />
  <path
     d="m 26.34256,13.966636 h -8.269381 c -0.213047,0 -0.382696,0.248097 -0.382696,0.55966 0,0.311564 0.169649,0.559661 0.382696,0.559661 h 8.273327 c 0.213045,0 0.382694,-0.248097 0.382694,-0.559661 0,-0.311563 -0.173594,-0.55966 -0.38664,-0.55966 z m 0,4.234958 h -5.744379 c -0.213047,0 -0.382697,0.248095 -0.382697,0.55966 0,0.311562 0.16965,0.559659 0.382697,0.559659 h 5.744379 c 0.213046,0 0.382695,-0.248097 0.382695,-0.559659 0,-0.311565 -0.169649,-0.55966 -0.382695,-0.55966 z"
     fill="#06f3ff"
     id="path26"
     style="stroke-width:0.0477107" />
  <path
     d="M 26.34256,22.430779 H 20.7915 c -0.213045,0 -0.382694,0.248096 -0.382694,0.55966 0,0.311564 0.169649,0.55966 0.382694,0.55966 h 5.55106 c 0.213046,0 0.382695,-0.248096 0.382695,-0.55966 0,-0.311564 -0.169649,-0.55966 -0.382695,-0.55966 z"
     fill="#005bff"
     id="path28"
     style="stroke-width:0.0477107" />
</svg>
