<?xml version="1.0" encoding="UTF-8" standalone="no"?>
<!-- Uploaded to: SVG Repo, www.svgrepo.com, Generator: SVG Repo Mixer Tools -->

<svg
   width="39px"
   height="39px"
   viewBox="0 0 39 39"
   class="icon"
   version="1.1"
   id="svg22"
   sodipodi:docname="cloudvista.svg"
   inkscape:version="1.1.2 (0a00cf5339, 2022-02-04)"
   xmlns:inkscape="http://www.inkscape.org/namespaces/inkscape"
   xmlns:sodipodi="http://sodipodi.sourceforge.net/DTD/sodipodi-0.dtd"
   xmlns="http://www.w3.org/2000/svg"
   xmlns:svg="http://www.w3.org/2000/svg">
  <defs
     id="defs26" />
  <sodipodi:namedview
     id="namedview24"
     pagecolor="#ffffff"
     bordercolor="#666666"
     borderopacity="1.0"
     inkscape:pageshadow="0"
     inkscape:pageopacity="0.0"
     inkscape:pagecheckerboard="0"
     showgrid="false"
     inkscape:zoom="4.3835535"
     inkscape:cx="114.06271"
     inkscape:cy="62.962617"
     inkscape:window-width="1920"
     inkscape:window-height="1000"
     inkscape:window-x="0"
     inkscape:window-y="0"
     inkscape:window-maximized="1"
     inkscape:current-layer="svg22" />
  <path
     d="m 33.685782,17.828785 c 0.0046,0.01305 0.0092,0.02176 0.01372,0.0348 -0.0046,-0.0087 -0.0092,-0.02177 -0.01372,-0.0348 z m -10.492371,8.645542 c 0,-0.0044 -0.0046,-0.0087 -0.0046,-0.01305 0,0.0044 0.0046,0.0087 0.0046,0.01305 z m 11.036658,-6.839855 c 0.0046,0.0174 0.0092,0.03916 0.01371,0.05655 -0.0046,-0.01741 -0.0092,-0.0348 -0.01371,-0.05655 z m -0.672353,-2.110261 c 0.0046,0.01305 0.0092,0.0261 0.0183,0.0348 -0.0092,-0.0087 -0.01372,-0.02176 -0.0183,-0.0348 z m 0.525991,1.496762 c 0.0046,0.01305 0.0092,0.03046 0.01371,0.04351 -0.0046,-0.01305 -0.0092,-0.0261 -0.01371,-0.04351 z m -0.658634,-1.77958 c 0.0092,0.0174 0.0183,0.03917 0.02744,0.05656 -0.0092,-0.01741 -0.01828,-0.03916 -0.02744,-0.05656 z m 0.370482,0.861508 c 0.0046,0.0174 0.01373,0.0348 0.01829,0.05222 -0.0046,-0.01305 -0.01371,-0.03046 -0.01829,-0.05222 z m -10.542683,8.493257 c 0,-0.0044 -0.0046,-0.0044 -0.0046,-0.0087 0,0.0044 0,0.0087 0.0046,0.0087 z m 1.632859,-0.500373 c -0.0137,0.0087 -0.02288,0.02177 -0.0366,0.03046 0.0092,-0.01305 0.02288,-0.02176 0.0366,-0.03046 z m 9.115644,-7.375034 c 0.0046,0.01741 0.0092,0.03046 0.0137,0.04786 -0.0046,-0.01305 -0.0092,-0.03046 -0.0137,-0.04786 z m -1.742627,-3.315501 0.04115,0.05222 z m -7.679464,10.990758 c -0.0366,0.04351 -0.07318,0.09573 -0.109774,0.143585 0.0366,-0.05222 0.07318,-0.100074 0.109774,-0.143585 z m 8.237471,-10.229324 c 0.0046,0.0087 0.01371,0.0174 0.01829,0.0261 -0.0046,-0.0044 -0.0092,-0.01305 -0.01829,-0.0261 z m -8.347245,10.37726 -0.05489,0.07831 z m 8.168864,-10.642676 c 0.01371,0.02177 0.02744,0.04351 0.04573,0.06092 -0.01829,-0.01741 -0.03202,-0.03916 -0.04573,-0.06092 z m -7.935598,10.355507 c -0.01371,0.0174 -0.03202,0.03046 -0.04573,0.04786 0.01371,-0.01305 0.03202,-0.03046 0.04573,-0.04786 z m -1.564251,0.08701 c -0.0046,-0.0087 -0.0046,-0.01305 -0.0092,-0.02176 0.0046,0.0087 0.0092,0.01305 0.0092,0.02176 z m 9.847461,-9.911695 c 0.0092,0.01741 0.02289,0.03481 0.03203,0.05222 -0.0092,-0.01741 -0.02289,-0.03481 -0.03203,-0.05222 z m -8.873235,10.78626 c -0.0092,0.01741 -0.01371,0.03481 -0.02287,0.05655 0.0092,-0.01741 0.0137,-0.0348 0.02287,-0.05655 z m 9.188831,-10.229325 z m -0.169233,-0.304574 c 0.0092,0.01741 0.02287,0.03917 0.03202,0.05655 -0.0092,-0.02176 -0.02287,-0.03917 -0.03202,-0.05655 z m -8.498181,9.650639 c -0.0183,0.01741 -0.03202,0.03917 -0.05031,0.05655 0.0183,-0.02176 0.03202,-0.03917 0.05031,-0.05655 z m -0.77755,1.118222 -0.0092,-0.0087 z m 4.194203,0.643954 c -0.0046,-0.0044 -0.0092,-0.0087 -0.0092,-0.01305 0,0.0087 0.0046,0.0087 0.0092,0.01305 z m -3.082762,-2.06675 c -0.0092,0.0087 -0.0183,0.01305 -0.02744,0.02176 0.0092,-0.0044 0.01829,-0.01305 0.02744,-0.02176 z m -0.228691,0.191446 0.06403,-0.06091 z m -0.754684,1.348827 c -0.02287,-0.01741 -0.04573,-0.03916 -0.0686,-0.06091 0.02288,0.02177 0.04573,0.03916 0.0686,0.06091 z m 10.762226,-5.173402 -0.246985,-0.165339 0.375055,0.24801 z m -10.560977,4.655626 c -0.01371,0.0261 -0.02287,0.05222 -0.0366,0.07831 0.01372,-0.0261 0.02289,-0.05222 0.0366,-0.07831 z m 3.800856,0.98334 z m -4.948887,-1.975379 c -0.0046,-0.01305 -0.0092,-0.02176 -0.0092,-0.03481 0.0046,0.0087 0.0092,0.02176 0.0092,0.03481 z m 1.221213,0.835402 c 0.05031,-0.09572 0.100624,-0.182744 0.150937,-0.269763 -0.07774,0.126178 -0.155512,0.26106 -0.224119,0.413348 0.02288,-0.04786 0.05031,-0.09573 0.07318,-0.143585 z m 7.807531,-11.713034 c 0.0183,0.02177 0.03202,0.03917 0.05031,0.06092 -0.01371,-0.02177 -0.03202,-0.04351 -0.05031,-0.06092 z m -8.978431,11.02122 c -0.0046,-0.0087 -0.0092,-0.01741 -0.0092,-0.03046 0.0046,0.01305 0.0046,0.02177 0.0092,0.03046 z m 11.297362,-5.656369 z m 0.08234,0.865859 c 0,0.03046 0.0046,0.05655 0.0046,0.08702 0,-0.0261 -0.0046,-0.05655 -0.0046,-0.08702 z m -9.390078,4.551202 c -0.0092,0.0044 -0.0183,0.0087 -0.02744,0.01742 0.0092,-0.0087 0.0183,-0.01305 0.02744,-0.01742 z m 9.207124,-6.052315 0.01371,0.06526 z m -10.240811,7.47946 c -0.0046,0.0087 -0.0092,0.02176 -0.0092,0.03046 0.0046,-0.0087 0.0092,-0.02176 0.0092,-0.03046 z m 10.291121,-7.183588 c 0.0046,0.0174 0.0046,0.03046 0.0092,0.04786 -0.0046,-0.01305 -0.0046,-0.03046 -0.0092,-0.04786 z m 0.109773,0.905019 c 0.0046,0.03046 0.0046,0.06527 0.0092,0.09573 -0.0046,-0.03046 -0.0092,-0.06091 -0.0092,-0.09573 z m -1.9759,-5.438816 c 0.0092,0.01305 0.01829,0.0261 0.03202,0.03917 -0.0092,-0.0087 -0.01829,-0.0261 -0.03202,-0.03917 z M 23.30776,26.713635 Z m 1.861549,-0.800593 -0.02744,0.01305 z m 9.24829,-5.086381 c 0.0046,0.02609 0.0046,0.05222 0.0092,0.08267 -0.0046,-0.02609 -0.0046,-0.05655 -0.0092,-0.08267 z"
     fill="#ffffff"
     id="path2"
     style="stroke-width:0.0446105" />
  <path
     d="m 33.676636,25.591063 0.65863,0.278468 c 0.567155,0.239308 0.983374,0.796242 1.276099,1.701261 0.365907,-0.308924 0.772977,-0.831052 1.001671,-1.70561 0.489399,-1.85355 -1.719762,-3.367718 -1.742632,-3.385121 l -0.375053,-0.24801 -0.01373,-0.435107 c -0.0046,-0.100073 -0.0092,-0.195796 -0.01371,-0.291518 0,-0.03046 -0.0046,-0.06092 -0.0046,-0.08702 -0.0046,-0.06961 -0.0092,-0.134882 -0.01371,-0.2045 -0.0046,-0.03046 -0.0046,-0.06527 -0.0092,-0.09573 -0.0046,-0.06962 -0.01371,-0.139232 -0.0183,-0.204499 -0.0046,-0.0261 -0.0046,-0.05222 -0.0092,-0.08267 -0.0092,-0.09573 -0.02287,-0.187095 -0.03202,-0.278467 l -0.04115,-0.287169 c -0.0046,-0.01741 -0.0046,-0.03046 -0.0092,-0.04786 -0.01371,-0.07831 -0.02289,-0.156637 -0.0366,-0.230604 l -0.0137,-0.06527 -0.04115,-0.221904 c -0.0046,-0.01741 -0.0092,-0.03916 -0.01371,-0.05655 -0.0183,-0.09137 -0.0366,-0.178393 -0.05947,-0.269765 -0.02287,-0.100075 -0.05031,-0.200149 -0.07318,-0.300224 -0.0046,-0.01305 -0.0092,-0.03046 -0.01371,-0.04351 -0.02288,-0.08702 -0.04573,-0.169691 -0.07318,-0.252361 -0.0046,-0.0174 -0.0092,-0.03046 -0.01371,-0.04786 -0.05947,-0.191445 -0.11892,-0.378542 -0.187527,-0.561286 -0.0046,-0.01741 -0.01371,-0.0348 -0.0183,-0.05222 -0.03202,-0.08267 -0.05945,-0.160988 -0.09149,-0.239308 -0.0046,-0.01305 -0.0092,-0.02177 -0.01371,-0.03481 -0.0366,-0.09137 -0.07318,-0.178392 -0.114346,-0.269764 -0.0046,-0.01305 -0.0092,-0.0261 -0.01829,-0.03481 -0.03203,-0.07397 -0.0686,-0.152288 -0.1052,-0.226255 -0.0092,-0.01741 -0.01829,-0.03916 -0.02744,-0.05655 -0.04115,-0.08267 -0.08234,-0.169691 -0.123493,-0.252361 -0.04574,-0.08267 -0.09148,-0.169691 -0.137216,-0.252362 -0.0092,-0.01741 -0.02289,-0.03917 -0.03202,-0.05655 -0.0366,-0.06528 -0.07775,-0.130532 -0.114346,-0.195799 -0.0092,-0.0174 -0.02287,-0.03481 -0.03202,-0.05222 -0.05031,-0.07831 -0.09604,-0.156637 -0.150937,-0.234956 -0.0046,-0.0087 -0.01371,-0.01742 -0.0183,-0.0261 -0.04574,-0.06961 -0.09149,-0.134883 -0.137216,-0.2045 -0.01371,-0.02176 -0.02744,-0.04351 -0.04573,-0.06091 -0.04573,-0.06091 -0.09148,-0.126181 -0.137215,-0.187095 -0.0092,-0.01305 -0.01829,-0.02609 -0.03203,-0.03917 -0.05488,-0.07397 -0.10977,-0.143585 -0.169231,-0.217552 l -0.04124,-0.05224 c -0.04574,-0.05655 -0.09149,-0.113127 -0.137217,-0.165339 -0.01829,-0.02176 -0.03202,-0.03917 -0.05031,-0.06091 -0.05946,-0.06963 -0.123495,-0.139233 -0.182955,-0.20885 -0.814142,-0.883264 -1.628282,-1.409741 -2.085666,-1.662102 -0.452809,0.252361 -1.266951,0.778838 -2.085667,1.662102 -1.628284,1.766527 -2.506461,4.059532 -2.602511,6.82245 l -0.01371,0.435106 -0.375054,0.248011 c -0.0183,0.01305 -2.23203,1.527219 -1.738056,3.380767 0.01372,0.05656 0.03203,0.108777 0.04573,0.160989 0.0046,0.01305 0.0092,0.02176 0.0092,0.0348 0.01372,0.03917 0.02287,0.07831 0.03659,0.117479 0.0046,0.0087 0.0092,0.01741 0.0092,0.03046 l 0.04115,0.117478 c 0.0046,0.0087 0.0046,0.01305 0.0092,0.02176 0.01371,0.03917 0.03202,0.07831 0.04573,0.117478 0,0.0044 0.0046,0.0087 0.0046,0.01305 l 0.05489,0.117479 c 0,0.0044 0.0046,0.0044 0.0046,0.0087 0.01829,0.03916 0.0366,0.07831 0.05945,0.117477 0.04115,0.07831 0.0869,0.152288 0.128066,0.221904 0.132641,0.2045 0.269857,0.36984 0.40707,0.504723 l 0.0092,0.0087 0.05946,0.05655 c 0.02287,0.02177 0.04573,0.03916 0.0686,0.06091 0.0183,-0.04786 0.03202,-0.100074 0.05031,-0.147935 0.0046,-0.0087 0.0092,-0.02177 0.0092,-0.03046 0.01372,-0.03916 0.02744,-0.07831 0.04573,-0.117478 0.0092,-0.01741 0.01371,-0.03917 0.02288,-0.05656 0.01371,-0.03046 0.02288,-0.06091 0.0366,-0.09137 0.0092,-0.0261 0.02287,-0.05222 0.0366,-0.07831 0,-0.0044 0.0046,-0.0044 0.0046,-0.0087 0.0686,-0.152287 0.146362,-0.291519 0.224116,-0.413349 l 0.0046,-0.0044 0.05489,-0.07831 0.0046,-0.0044 c 0.0366,-0.05222 0.07318,-0.100074 0.109773,-0.143585 l 0.0046,-0.0044 c 0.0137,-0.01741 0.03202,-0.03916 0.05031,-0.05655 0.0092,-0.0087 0.01829,-0.01741 0.02287,-0.0261 0.01371,-0.01741 0.03202,-0.0348 0.04573,-0.04786 l 0.03659,-0.0348 c 0.02289,-0.02177 0.04115,-0.04351 0.06403,-0.06091 0.01371,-0.01305 0.02744,-0.0261 0.04573,-0.03917 0.0137,-0.0087 0.02288,-0.02176 0.0366,-0.03046 l 0.05489,-0.03917 c 0.0092,-0.0087 0.0183,-0.01305 0.02744,-0.02176 l 0.08234,-0.05222 c 0.0092,-0.0044 0.0183,-0.0087 0.02744,-0.0174 l 0.0686,-0.03916 0.02744,-0.01305 c 0.03202,-0.01741 0.05946,-0.03046 0.09149,-0.04351 l 0.658631,-0.278467 0.439089,0.543881 c 0.0869,0.104425 0.173806,0.213201 0.265282,0.321978 0.434514,0.52648 0.901045,1.074711 1.239508,1.44455 0.04573,0.04786 0.0869,0.09137 0.123494,0.134884 0.0183,0.01741 0.03202,0.03481 0.0503,0.05222 0.0046,0.0044 0.0092,0.0087 0.0092,0.01305 0.0183,0.01741 0.03202,0.03481 0.04573,0.04786 h 3.412078 c 0.379629,-0.382892 1.129736,-1.261805 1.738057,-2.014537 z m -3.983808,-3.811522 c -1.427037,0 -2.584217,-1.105167 -2.584217,-2.458345 0,-1.357527 1.161755,-2.458345 2.584217,-2.458345 1.422461,0 2.584213,1.105168 2.584213,2.458345 0,1.353178 -1.157178,2.458345 -2.584213,2.458345 z"
     fill="#000000"
     id="path4"
     style="stroke-width:0.0446105"
     opacity="0" />
  <path
     d="m 26.41339,13.747497 c 1.486495,-1.579431 2.963843,-2.19293 3.023303,-2.219036 l 0.361332,-0.147936 0.361332,0.147936 c 0.06404,0.0261 1.541383,0.639605 3.023304,2.219036 0.503121,0.53518 1.047408,1.222646 1.536808,2.084156 C 34.618844,9.9011664 29.509873,5.1019553 23.248298,5.1019553 c -4.610423,0 -8.736018,2.6106316 -10.538107,6.5831437 0.388774,0.130532 0.76383,0.287168 1.129736,0.465563 1.253229,0.617849 2.355523,1.514165 3.192535,2.597578 0.297298,0.387243 0.210395,0.931124 -0.196676,1.218294 -0.407072,0.282819 -0.978801,0.20015 -1.280673,-0.187095 -1.385871,-1.792633 -3.608752,-2.862993 -5.9414078,-2.862993 -4.066136,0 -7.3684428,3.145812 -7.3684428,7.009547 0,3.868086 3.3068804,7.009546 7.3684428,7.009546 H 21.418766 c -0.07775,-0.204501 -0.150937,-0.417702 -0.210398,-0.652658 -0.644909,-2.432239 1.257805,-4.281437 2.094818,-4.955849 0.233263,-3.768013 1.806662,-6.1959 3.110204,-7.579535 z M 19.506904,8.9961473 c -1.509364,0.8223494 -2.259472,1.9405687 -2.26862,1.9536237 -0.0869,0.130532 -0.237842,0.204499 -0.388776,0.204499 -0.08234,0 -0.169231,-0.02175 -0.242415,-0.06527 -0.214969,-0.126181 -0.279003,-0.395945 -0.141788,-0.600446 0.0366,-0.05221 0.88275,-1.3140178 2.588789,-2.2451427 1.573399,-0.8571574 4.198778,-1.5837834 7.775515,-0.1783935 0.233265,0.091372 0.343038,0.3480845 0.246987,0.5699887 -0.09604,0.2219028 -0.365908,0.3263287 -0.599173,0.2349564 C 23.88406,7.8474657 21.537684,7.8909761 19.506904,8.9961433 Z"
     fill="#000000"
     id="path6"
     style="stroke-width:0.0446105"
     opacity="0" />
  <path
     d="m 25.622116,28.480162 c 0.1052,-0.01741 0.210397,-0.0348 0.311021,-0.05656 -0.07774,-0.08702 -0.150936,-0.174043 -0.224117,-0.261064 -0.03202,0.100074 -0.06404,0.20885 -0.0869,0.317627 z"
     fill="#005bff"
     id="path8"
     style="stroke-width:0.0446105" />
  <path
     d="m 33.891607,28.162536 c 0.07774,0.252361 0.141787,0.53953 0.182951,0.804944 l 0.123492,0.896318 0.937635,-0.152287 c 0.100626,-0.01741 2.465297,-0.430755 3.256569,-3.424278 0.644911,-2.432239 -1.257803,-4.281437 -2.094813,-4.955851 -0.04116,-0.66136 -0.123494,-1.279209 -0.237841,-1.86225 0.329317,-1.109518 0.498548,-2.266899 0.498548,-3.450386 0,-3.380768 -1.385871,-6.5613869 -3.896904,-8.9501146 -2.515607,-2.3930792 -5.854506,-3.7070973 -9.408372,-3.7070973 -5.447434,0 -10.313991,3.1458112 -12.335623,7.9015119 -0.429942,-0.05655 -0.864456,-0.08701 -1.2943962,-0.08701 -5.0723792,0 -9.19797541,3.924649 -9.19797541,8.749966 0,4.825319 4.12559621,8.749968 9.19797541,8.749968 H 22.566797 c 0.896471,0.852806 1.843255,1.022498 1.907288,1.031198 l 0.933061,0.147938 0.123494,-0.891967 c 0.02288,-0.160989 0.05489,-0.326328 0.09604,-0.487316 0.02744,-0.108778 0.0549,-0.217554 0.0869,-0.317629 0.07318,0.08701 0.150934,0.174043 0.224118,0.261063 0.480252,0.556936 0.978798,1.096466 1.262377,1.296613 l 0.242413,0.169693 h 4.72477 l 0.24241,-0.169693 c 0.32017,-0.226254 0.937637,-0.918072 1.481925,-1.553324 z M 21.208368,26.287233 c 0.05946,0.230604 0.132642,0.448156 0.210398,0.652657 H 9.6137052 c -4.066136,0 -7.3684428,-3.145811 -7.3684428,-7.009546 0,-3.868086 3.3068804,-7.009547 7.3684428,-7.009547 2.3372298,0 4.5555368,1.07036 5.9414078,2.862993 0.297298,0.387245 0.873601,0.469915 1.280673,0.187094 0.407071,-0.282818 0.493974,-0.831051 0.196676,-1.218293 -0.837012,-1.083412 -1.939306,-1.979729 -3.192535,-2.597579 -0.365906,-0.178394 -0.740962,-0.33503 -1.129736,-0.465563 1.802089,-3.9768621 5.927684,-6.5874937 10.538107,-6.5874937 6.261575,0 11.370546,4.7992111 11.475744,10.7340477 -0.4894,-0.861508 -1.033685,-1.553326 -1.536807,-2.084154 -1.486495,-1.579433 -2.963844,-2.192931 -3.023303,-2.219037 l -0.361333,-0.147936 -0.361332,0.147936 c -0.06403,0.0261 -1.541382,0.639604 -3.023303,2.219037 -1.303544,1.383634 -2.876941,3.811522 -3.110206,7.583885 -0.841585,0.670062 -2.744299,2.51926 -2.09939,4.951499 z m 10.291123,1.862249 H 28.09656 c -0.01372,-0.0174 -0.03203,-0.03046 -0.04574,-0.04786 -0.0046,-0.0044 -0.0092,-0.0087 -0.0092,-0.01305 -0.0183,-0.0174 -0.03202,-0.0348 -0.05031,-0.05222 -0.402537,-0.426402 -1.07489,-1.213944 -1.628324,-1.901409 l -0.439087,-0.543883 -0.658632,0.278469 c -0.03202,0.01305 -0.06403,0.0261 -0.09149,0.04351 l -0.02744,0.01305 -0.0686,0.03917 c -0.0092,0.0044 -0.0183,0.0087 -0.02744,0.01741 l -0.08234,0.05222 c -0.0092,0.0087 -0.0183,0.01305 -0.02744,0.02176 l -0.05489,0.03917 c -0.01372,0.0087 -0.02288,0.02176 -0.0366,0.03046 -0.01371,0.01305 -0.02744,0.0261 -0.04573,0.03916 -0.02288,0.02177 -0.04573,0.03917 -0.06403,0.06091 l -0.0366,0.0348 c -0.0137,0.01741 -0.03202,0.03046 -0.04573,0.04786 -0.0092,0.0087 -0.0183,0.01741 -0.02288,0.0261 -0.0183,0.0174 -0.03203,0.03917 -0.05031,0.05656 l -0.0046,0.0044 -0.109773,0.143583 -0.0046,0.0044 -0.05489,0.07831 -0.0046,0.0044 c -0.05489,0.08267 -0.105199,0.174041 -0.150938,0.269766 -0.02288,0.04786 -0.04573,0.09573 -0.07318,0.147934 0,0.0044 -0.0046,0.0044 -0.0046,0.0087 -0.01371,0.0261 -0.02288,0.05222 -0.0366,0.07831 -0.0137,0.03046 -0.02744,0.06091 -0.03659,0.09137 -0.0092,0.01741 -0.01372,0.03481 -0.02288,0.05656 -0.0137,0.03917 -0.03202,0.07831 -0.04573,0.117478 -0.0046,0.0087 -0.0092,0.02176 -0.0092,0.03046 -0.0183,0.04786 -0.03203,0.09573 -0.05031,0.147935 -0.02289,-0.01741 -0.04573,-0.03916 -0.0686,-0.06091 l -0.05946,-0.05656 -0.0092,-0.0087 c -0.182829,-0.178394 -0.37493,-0.4177 -0.539588,-0.730977 -0.01831,-0.03916 -0.04115,-0.07831 -0.05946,-0.117479 0,-0.0044 -0.0046,-0.0044 -0.0046,-0.0087 l -0.05489,-0.117479 c 0,-0.0044 -0.0046,-0.0087 -0.0046,-0.01305 -0.0183,-0.03917 -0.03202,-0.07831 -0.04573,-0.117479 -0.0046,-0.0087 -0.0046,-0.01305 -0.0092,-0.02177 l -0.04115,-0.117478 c -0.0046,-0.0087 -0.0092,-0.01741 -0.0092,-0.03046 -0.01371,-0.03917 -0.02744,-0.07831 -0.0366,-0.117479 -0.0046,-0.01305 -0.0092,-0.02177 -0.0092,-0.0348 -0.0137,-0.05222 -0.03202,-0.104426 -0.04573,-0.160989 -0.489399,-1.853549 1.719762,-3.367715 1.738056,-3.380768 l 0.375054,-0.24801 0.01371,-0.435104 c 0.09604,-2.76292 0.969652,-5.055925 2.602509,-6.822452 0.818716,-0.883263 1.632859,-1.409739 2.085667,-1.662102 0.452811,0.252363 1.266952,0.778839 2.085668,1.662102 0.06403,0.06962 0.123494,0.139235 0.182952,0.208851 0.01829,0.02176 0.03202,0.03916 0.05031,0.06092 0.04574,0.05655 0.09149,0.108775 0.137215,0.165338 l 0.04115,0.05222 c 0.05946,0.06962 0.114346,0.143583 0.169233,0.217553 0.0092,0.01305 0.0183,0.02609 0.03202,0.03917 0.04573,0.06091 0.09149,0.121829 0.137214,0.187095 0.01371,0.02176 0.02744,0.04351 0.04574,0.06091 0.04573,0.06527 0.09148,0.134883 0.137214,0.204499 0.0046,0.0087 0.01371,0.01741 0.01829,0.0261 l 0.150935,0.234957 c 0.0092,0.01741 0.02288,0.03481 0.03202,0.05222 0.04115,0.06527 0.07775,0.130533 0.114345,0.195798 0.0092,0.0174 0.02289,0.03917 0.03203,0.05655 0.04573,0.08267 0.09149,0.16534 0.137214,0.252361 0.04115,0.08267 0.0869,0.165341 0.123494,0.252362 0.0092,0.01741 0.0183,0.03917 0.02744,0.05655 0.03659,0.07397 0.0686,0.147936 0.105196,0.226256 0.0046,0.01305 0.0092,0.0261 0.01829,0.0348 0.04116,0.08702 0.07775,0.178394 0.114347,0.269767 0.0046,0.01305 0.0092,0.02177 0.01371,0.03481 0.03202,0.07831 0.06403,0.160989 0.09149,0.239309 0.0046,0.01741 0.01371,0.0348 0.0183,0.05222 0.0686,0.182743 0.128067,0.37419 0.187527,0.561285 0.0046,0.01741 0.0092,0.03046 0.01371,0.04786 0.02287,0.08267 0.05031,0.169692 0.07318,0.252362 0.0046,0.01305 0.0092,0.03046 0.0137,0.04351 0.05031,0.187096 0.09604,0.378542 0.132642,0.569988 0.0046,0.01741 0.0092,0.03917 0.01371,0.05656 l 0.04115,0.221904 0.01371,0.06526 c 0.01371,0.07831 0.02744,0.152287 0.03658,0.230607 0.0046,0.01741 0.0046,0.03046 0.0092,0.04786 l 0.04115,0.28717 c 0.0137,0.09137 0.02288,0.187095 0.03202,0.278467 0.0046,0.0261 0.0046,0.05222 0.0092,0.08267 0.0046,0.06962 0.01371,0.134884 0.0183,0.2045 0.0046,0.03046 0.0046,0.06527 0.0092,0.09572 0.0046,0.06961 0.0092,0.134883 0.01371,0.204499 0,0.03046 0.0046,0.05656 0.0046,0.08701 0.0046,0.09572 0.0092,0.195797 0.01372,0.291521 l 0.01372,0.435106 0.251559,0.165339 0.123496,0.08267 c 0.02287,0.01305 2.232028,1.52722 1.742629,3.38512 -0.233266,0.874562 -0.635764,1.396688 -1.00167,1.705613 -0.292725,-0.905019 -0.713517,-1.461955 -1.2761,-1.701262 l -0.658791,-0.278364 -0.439088,0.543883 c -0.60832,0.765783 -1.363002,1.644697 -1.742631,2.02759 z"
     fill="#005bff"
     id="path10"
     style="stroke-width:0.0446105" />
  <path
     d="m 24.089883,27.274921 c -0.01371,0.03917 -0.03202,0.07831 -0.04573,0.117478 0.0183,-0.03917 0.03202,-0.07831 0.04573,-0.117478 z m 0.05947,-0.143585 c -0.01371,0.03046 -0.02744,0.06091 -0.0366,0.09137 0.01371,-0.0348 0.02288,-0.06527 0.0366,-0.09137 z m -0.114347,0.29152 c -0.0183,0.04786 -0.03202,0.09573 -0.05031,0.147936 0.0183,-0.05222 0.03202,-0.100074 0.05031,-0.147936 z m 4.002104,0.665713 c -0.0183,-0.01741 -0.03202,-0.03481 -0.05031,-0.05222 0.0183,0.01741 0.0366,0.0348 0.05031,0.05222 z m -2.986714,-2.110263 -0.08234,0.05222 z m -0.114344,0.07397 -0.05489,0.03917 c 0.02288,-0.01305 0.04115,-0.0261 0.05489,-0.03917 z m -0.0869,0.06963 c -0.01372,0.01305 -0.02744,0.0261 -0.04574,0.03915 0.0137,-0.01305 0.03202,-0.02611 0.04574,-0.03915 z m 0.292724,-0.195798 -0.0686,0.03917 z m 0.11892,-0.05655 c -0.03202,0.01305 -0.06404,0.0261 -0.09149,0.04351 0.03203,-0.0174 0.06403,-0.03046 0.09149,-0.04351 z m 2.835776,2.279952 c -0.01371,-0.01741 -0.03202,-0.03046 -0.04574,-0.04786 0.01371,0.01305 0.03202,0.03046 0.04574,0.04786 z m -3.910627,-1.105167 c 0,0.0044 -0.0046,0.0044 -0.0046,0.0087 0.0046,-0.0044 0.0046,-0.0044 0.0046,-0.0087 z m 0.553434,-0.82235 -0.03659,0.0348 z m -0.265282,0.317627 -0.0046,0.0044 c 0,0 0,-0.0044 0.0046,-0.0044 z m -0.05946,0.08267 -0.0046,0.0044 c 0.0046,0 0.0046,0 0.0046,-0.0044 z m 0.169232,-0.230607 -0.0046,0.0044 z m 0.07318,-0.08701 c -0.0092,0.0087 -0.0183,0.0174 -0.02289,0.0261 0.0092,-0.0044 0.01372,-0.01741 0.02289,-0.0261 z m 8.795478,-9.006681 c 0.0366,0.07397 0.0686,0.147937 0.1052,0.226255 -0.03202,-0.07397 -0.0686,-0.152286 -0.1052,-0.226255 z M 33.30159,16.989061 c 0.04115,0.08267 0.0869,0.16534 0.123492,0.252361 -0.04115,-0.08267 -0.08233,-0.169691 -0.123492,-0.252361 z m 0.713517,1.779581 c 0.02288,0.08267 0.05031,0.16969 0.07318,0.252361 -0.02744,-0.08267 -0.05031,-0.165339 -0.07318,-0.252361 z m 0.283578,1.209592 c 0.01371,0.07831 0.02744,0.152287 0.0366,0.230607 -0.0092,-0.07397 -0.02289,-0.152289 -0.0366,-0.230607 z m -0.59918,-2.114616 z m 0.114344,0.29587 c 0.06861,0.182746 0.128069,0.374192 0.187527,0.561288 -0.05946,-0.191448 -0.118918,-0.378542 -0.187527,-0.561288 z m -0.237836,-0.600454 c 0.04115,0.08702 0.07774,0.178391 0.114345,0.269765 -0.04116,-0.08701 -0.07776,-0.178393 -0.114345,-0.269765 z m 0.768403,2.702004 0.04114,0.287169 z m -0.100626,-0.569989 0.04115,0.221904 z m -10.936026,7.0226 c 0.164658,0.308926 0.352185,0.548233 0.539713,0.730977 -0.137216,-0.134882 -0.279005,-0.300222 -0.407072,-0.504722 -0.04573,-0.06963 -0.0869,-0.143585 -0.132641,-0.226255 z"
     fill="#005bff"
     id="path12"
     style="stroke-width:0.0446105" />
  <path
     d="m 26.623784,26.456924 c -0.09148,-0.108777 -0.178377,-0.217554 -0.26528,-0.321979 0.553434,0.683115 1.225786,1.475006 1.628285,1.901411 -0.04115,-0.03916 -0.08234,-0.08701 -0.123494,-0.134884 -0.338464,-0.36984 -0.804995,-0.91372 -1.239511,-1.444548 z m 7.606285,-6.822452 c -0.04115,-0.191448 -0.0869,-0.382893 -0.132643,-0.569987 0.02744,0.100073 0.05031,0.200147 0.07318,0.300221 0.02289,0.09137 0.04115,0.182746 0.05947,0.269766 z m 0.196673,1.274858 c 0.0046,0.06962 0.01373,0.134883 0.0183,0.2045 -0.0046,-0.06961 -0.01371,-0.134883 -0.0183,-0.2045 z m -0.04115,-0.361137 c 0.01371,0.09137 0.02287,0.187096 0.03203,0.278468 -0.0092,-0.09137 -0.02288,-0.187095 -0.03203,-0.278468 z m 0.0686,0.66136 c 0.0046,0.06961 0.0092,0.134883 0.01371,0.204499 -0.0046,-0.06527 -0.0092,-0.134882 -0.01371,-0.204499 z m 0.0183,0.295873 c 0.0046,0.09573 0.0092,0.195796 0.01372,0.291518 -0.0046,-0.100073 -0.0092,-0.195796 -0.01372,-0.291518 z m -11.393414,4.67303 c -0.01371,-0.03917 -0.02744,-0.07831 -0.03659,-0.117479 0.0092,0.03917 0.02288,0.07831 0.03659,0.117479 z m 0.05031,0.143585 -0.04115,-0.117479 c 0.01371,0.04351 0.02744,0.08267 0.04115,0.117479 z m 0.7867,1.187837 -0.05946,-0.05656 z m -0.887323,-1.48371 c -0.0137,-0.05222 -0.03202,-0.104425 -0.04573,-0.160986 0.0137,0.05222 0.02744,0.108772 0.04573,0.160986 z m 0.279005,0.687467 c -0.0183,-0.03916 -0.04115,-0.07831 -0.05946,-0.117477 0.02287,0.04351 0.04115,0.07831 0.05946,0.117477 z m 8.575934,-11.73914 c 0.06404,0.06963 0.123494,0.139233 0.182954,0.20885 -0.05946,-0.06961 -0.11892,-0.139233 -0.182954,-0.20885 z m -8.694852,11.486779 c -0.0183,-0.03917 -0.03202,-0.07831 -0.04574,-0.117479 0.01372,0.03915 0.02744,0.07831 0.04574,0.117479 z m 0.05945,0.130532 -0.05489,-0.117479 z m 8.873232,-11.351897 c 0.04574,0.05655 0.09148,0.108775 0.137216,0.165341 -0.04574,-0.05222 -0.09149,-0.108778 -0.137216,-0.165341 z m 0.713519,0.957231 0.150935,0.234957 z m -0.155516,-0.230606 c 0.04574,0.06527 0.09149,0.134883 0.137217,0.204501 -0.04573,-0.06962 -0.09149,-0.139235 -0.137217,-0.204501 z m 0.338465,0.522126 c 0.04115,0.06527 0.07774,0.130534 0.114346,0.195798 -0.0366,-0.06962 -0.07318,-0.134883 -0.114346,-0.195798 z m 0.146362,0.252362 z m -0.864453,-1.28356 c 0.05947,0.06963 0.114344,0.143583 0.169231,0.217552 -0.05489,-0.06962 -0.10977,-0.143584 -0.169231,-0.217552 z m 0.201248,0.261062 c 0.04573,0.06091 0.09149,0.12183 0.137214,0.187096 -0.04573,-0.06527 -0.09149,-0.126181 -0.137214,-0.187096 z"
     fill="#005bff"
     id="path14"
     style="stroke-width:0.0446105" />
  <path
     d="m 29.692828,17.72871 c -0.91934,0 -1.66945,0.713574 -1.66945,1.588136 0,0.874561 0.75011,1.588133 1.66945,1.588133 0.919339,0 1.669447,-0.713572 1.669447,-1.588133 0,-0.874562 -0.750108,-1.588136 -1.669447,-1.588136 z"
     fill="#000000"
     id="path16"
     style="stroke-width:0.0446105"
     opacity="0" />
  <path
     d="m 29.692828,16.8585 c -1.427037,0 -2.584217,1.105169 -2.584217,2.458346 0,1.357528 1.161755,2.458344 2.584217,2.458344 1.422461,0 2.584213,-1.105168 2.584213,-2.458344 0,-1.353177 -1.157178,-2.458346 -2.584213,-2.458346 z m 0,4.05083 c -0.91934,0 -1.66945,-0.713572 -1.66945,-1.588134 0,-0.874561 0.75011,-1.588136 1.66945,-1.588136 0.919339,0 1.669447,0.713575 1.669447,1.588136 0,0.874562 -0.750108,1.588134 -1.669447,1.588134 z m -1.212067,9.815977 c -0.251559,0 -0.457383,0.195796 -0.457383,0.435103 v 4.324947 c 0,0.239308 0.205824,0.435106 0.457383,0.435106 0.251562,0 0.457383,-0.195798 0.457383,-0.435106 V 31.16041 c 0,-0.239307 -0.205821,-0.435103 -0.457383,-0.435103 z"
     fill="#06f3ff"
     id="path18"
     style="stroke-width:0.0446105" />
  <path
     d="m 31.298243,30.290201 c -0.503122,0 -0.914766,0.391595 -0.914766,0.870209 v 1.253104 c 0,0.478617 0.411644,0.870211 0.914766,0.870211 0.503121,0 0.914765,-0.391594 0.914765,-0.870211 V 31.16041 c 0,-0.482965 -0.411644,-0.870209 -0.914765,-0.870209 z M 27.076596,8.6306588 c 0.09604,-0.2219032 -0.01371,-0.4786155 -0.246987,-0.5699876 -3.576737,-1.40539 -6.202116,-0.6787643 -7.775515,0.1783932 -1.706039,0.9311258 -2.552197,2.1929316 -2.588789,2.2451436 -0.132642,0.204499 -0.0686,0.469913 0.141788,0.600445 0.07775,0.04351 0.160086,0.06527 0.242415,0.06527 0.150934,0 0.301873,-0.07397 0.388776,-0.204501 0.0092,-0.01305 0.759256,-1.1312738 2.26862,-1.9536227 2.026208,-1.1051672 4.372583,-1.1486776 6.970519,-0.1305314 0.233265,0.1000742 0.503122,-0.0087 0.599173,-0.2306055 z"
     fill="#005bff"
     id="path20"
     style="stroke-width:0.0446105" />
</svg>
