<?xml version="1.0" encoding="UTF-8" standalone="no"?>
<!-- Uploaded to: SVG Repo, www.svgrepo.com, Generator: SVG Repo Mixer Tools -->

<svg
   width="40px"
   height="40px"
   viewBox="0 0 40 40"
   class="icon"
   version="1.1"
   id="svg30"
   sodipodi:docname="machine.svg"
   inkscape:version="1.1.2 (0a00cf5339, 2022-02-04)"
   xmlns:inkscape="http://www.inkscape.org/namespaces/inkscape"
   xmlns:sodipodi="http://sodipodi.sourceforge.net/DTD/sodipodi-0.dtd"
   xmlns="http://www.w3.org/2000/svg"
   xmlns:svg="http://www.w3.org/2000/svg">
  <defs
     id="defs34" />
  <sodipodi:namedview
     id="namedview32"
     pagecolor="#ffffff"
     bordercolor="#666666"
     borderopacity="1.0"
     inkscape:pageshadow="2"
     inkscape:pageopacity="0.0"
     inkscape:pagecheckerboard="0"
     showgrid="false"
     inkscape:zoom="10.149695"
     inkscape:cx="21.675529"
     inkscape:cy="21.774054"
     inkscape:window-width="1920"
     inkscape:window-height="1000"
     inkscape:window-x="0"
     inkscape:window-y="0"
     inkscape:window-maximized="1"
     inkscape:current-layer="svg30" />
  <path
     d="M 36.546594,2.5289475 H 3.5277908 c -0.7436667,0 -1.3521212,0.7394542 -1.3521212,1.6432316 V 30.633683 c 0,0.903775 0.6084545,1.64323 1.3521212,1.64323 H 36.546594 c 0.743666,0 1.352121,-0.739455 1.352121,-1.64323 V 4.1721791 c 0,-0.9037774 -0.608455,-1.6432316 -1.352121,-1.6432316 z"
     fill="#ffffff"
     id="path2"
     style="stroke-width:0.0496861" />
  <path
     d="M 3.5277908,32.276913 H 36.546594 c 0.743666,0 1.352121,-0.739455 1.352121,-1.64323 V 29.423168 H 2.1756696 v 1.210515 c 0,0.909254 0.6084545,1.64323 1.3521212,1.64323 z"
     fill="#000000"
     id="path4"
     style="stroke-width:0.0496861" />
  <path
     d="M 36.546594,0.33797242 H 3.5277908 c -1.7397294,0 -3.15494972,1.71991548 -3.15494972,3.83420668 V 30.633683 c 0,2.114289 1.41522032,3.834205 3.15494972,3.834205 H 36.546594 c 1.73973,0 3.154949,-1.719916 3.154949,-3.834205 V 4.1721791 c 0,-2.1142912 -1.415219,-3.83420668 -3.154949,-3.83420668 z M 37.898715,29.423168 v 1.210515 c 0,0.903775 -0.608455,1.64323 -1.352121,1.64323 H 3.5277908 c -0.7436667,0 -1.3521212,-0.739455 -1.3521212,-1.64323 V 4.1721791 c 0,-0.9037774 0.6084545,-1.6432316 1.3521212,-1.6432316 H 36.546594 c 0.743666,0 1.352121,0.7394542 1.352121,1.6432316 z M 27.51893,39.676931 H 12.555454 c -0.495777,0 -0.901414,-0.492969 -0.901414,-1.095486 0,-0.60252 0.405637,-1.095488 0.901414,-1.095488 H 27.51893 c 0.495779,0 0.901415,0.492968 0.901415,1.095488 0,0.602517 -0.405636,1.095486 -0.901415,1.095486 z"
     fill="#005bff"
     id="path6"
     style="stroke-width:0.0496861" />
  <path
     d="m 2.6894756,28.261951 c -0.1216909,0 -0.2433818,-0.06025 -0.3290161,-0.175279 -0.1667617,-0.224573 -0.1577476,-0.569653 0.027042,-0.772319 L 13.046725,15.285899 17.828729,21.645206 29.497534,5.7222937 37.777025,16.474505 c 0.171268,0.219096 0.162254,0.569653 -0.01803,0.772318 -0.180283,0.208143 -0.464228,0.197189 -0.635496,-0.02192 L 29.515563,7.3436156 17.842249,23.277482 12.99264,16.830538 2.9959565,28.11406 c -0.090142,0.09859 -0.1983112,0.147891 -0.3064809,0.147891 z"
     fill="#06f3ff"
     id="path8"
     style="stroke-width:0.0496861" />
  <path
     d="m 4.0100476,21.645206 a 3.7273479,4.5353185 0 1 0 7.4546954,0 3.7273479,4.5353185 0 1 0 -7.4546954,0 z"
     fill="#d7e7ff"
     id="path10"
     style="stroke-width:0.0496861" />
  <path
     d="m 5.0647023,21.645206 a 2.6726933,3.2481213 0 1 0 5.3453867,0 2.6726933,3.2481213 0 1 0 -5.3453867,0 z"
     fill="#b5cff4"
     id="path12"
     style="stroke-width:0.0496861" />
  <path
     d="m 6.3762598,21.645206 a 1.3611355,1.6596643 0 1 0 2.722271,0 1.3611355,1.6596643 0 1 0 -2.722271,0 z"
     fill="#005bff"
     id="path14"
     style="stroke-width:0.0496861" />
  <path
     d="m 23.142565,10.033038 a 3.727348,4.5353185 0 1 0 7.454695,0 3.727348,4.5353185 0 1 0 -7.454695,0 z"
     fill="#d7e7ff"
     id="path16"
     style="stroke-width:0.0496861" />
  <path
     d="m 24.197219,10.033038 a 2.6726932,3.2481208 0 1 0 5.345386,0 2.6726932,3.2481208 0 1 0 -5.345386,0 z"
     fill="#b5cff4"
     id="path18"
     style="stroke-width:0.0496861" />
  <path
     d="m 25.508777,10.033038 a 1.3611358,1.659664 0 1 0 2.722271,0 1.3611358,1.659664 0 1 0 -2.722271,0 z"
     fill="#005bff"
     id="path20"
     style="stroke-width:0.0496861" />
  <path
     d="m 29.380352,21.519225 a 2.086774,2.5415311 0 1 0 4.173546,0 2.086774,2.5415311 0 1 0 -4.173546,0 z"
     fill="#d7e7ff"
     id="path22"
     style="stroke-width:0.0496861" />
  <path
     d="m 29.970777,21.519225 a 1.4963478,1.8185096 0 1 0 2.992695,0 1.4963478,1.8185096 0 1 0 -2.992695,0 z"
     fill="#b5cff4"
     id="path24"
     style="stroke-width:0.0496861" />
  <path
     d="m 30.70543,21.519225 a 0.761695,0.93116446 0 1 0 1.523389,0 0.761695,0.93116446 0 1 0 -1.523389,0 z"
     fill="#005bff"
     id="path26"
     style="stroke-width:0.0496861" />
  <path
     d="M 16.647876,31.406 H 9.3644478 c -0.2253534,0 -0.4056365,-0.219097 -0.4056365,-0.49297 0,-0.273871 0.1802831,-0.492968 0.4056365,-0.492968 h 7.2834282 c 0.225352,0 0.405635,0.219097 0.405635,0.492968 0,0.268397 -0.184789,0.49297 -0.405635,0.49297 z m -9.7442889,0 H 5.7092133 c -0.2253535,0 -0.4056364,-0.219097 -0.4056364,-0.49297 0,-0.273871 0.1802829,-0.492968 0.4056364,-0.492968 h 1.1943738 c 0.2253535,0 0.4056365,0.219097 0.4056365,0.492968 0,0.268397 -0.1847901,0.49297 -0.4056365,0.49297 z"
     fill="#ffffff"
     id="path28"
     style="stroke-width:0.0496861" />
</svg>
