<?xml version="1.0" encoding="UTF-8" standalone="no"?>
<!-- Uploaded to: SVG Repo, www.svgrepo.com, Generator: SVG Repo Mixer Tools -->

<svg
   width="40px"
   height="40px"
   viewBox="0 0 40 40"
   class="icon"
   version="1.1"
   id="svg20"
   sodipodi:docname="page.svg"
   inkscape:version="1.1.2 (0a00cf5339, 2022-02-04)"
   xmlns:inkscape="http://www.inkscape.org/namespaces/inkscape"
   xmlns:sodipodi="http://sodipodi.sourceforge.net/DTD/sodipodi-0.dtd"
   xmlns="http://www.w3.org/2000/svg"
   xmlns:svg="http://www.w3.org/2000/svg">
  <defs
     id="defs24" />
  <sodipodi:namedview
     id="namedview22"
     pagecolor="#ffffff"
     bordercolor="#666666"
     borderopacity="1.0"
     inkscape:pageshadow="0"
     inkscape:pageopacity="0.0"
     inkscape:pagecheckerboard="0"
     showgrid="false"
     inkscape:zoom="7.660845"
     inkscape:cx="41.770849"
     inkscape:cy="30.806001"
     inkscape:window-width="1920"
     inkscape:window-height="1000"
     inkscape:window-x="0"
     inkscape:window-y="0"
     inkscape:window-maximized="1"
     inkscape:current-layer="svg20" />
  <path
     d="M 28.480358,38.712203 H 4.0673267 c -1.4524674,0 -2.6312817,-1.200205 -2.6312817,-2.67903 V 10.496671 c 0,-1.4788249 1.1788143,-2.67903 2.6312817,-2.67903 H 28.475096 c 1.452467,0 2.631282,1.2002051 2.631282,2.67903 v 25.536502 c 0.0053,1.484184 -1.173552,2.67903 -2.62602,2.67903 z"
     fill="#ffffff"
     id="path2"
     style="stroke-width:0.0531009" />
  <path
     d="M 28.42247,8.7928077 H 4.0094385 c -0.868323,0 -1.578769,0.7233381 -1.578769,1.6074173 V 14.46699 H 30.001239 v -4.066765 c 0,-0.8840792 -0.710446,-1.6074173 -1.578769,-1.6074173 z"
     fill="#000000"
     id="path4"
     style="stroke-width:0.0531009" />
  <path
     d="M 38.421342,1.2915266 C 37.610906,0.63248555 36.55313,0.27349572 35.437467,0.27349572 H 12.350602 c -1.115664,0 -2.178701,0.36434794 -2.983874,1.01803088 C 8.5036677,1.9934323 8.0037238,2.9900311 8.0037238,4.0241362 V 6.6495849 H 4.0094385 c -2.0313494,0 -3.68379437,1.6824301 -3.68379437,3.7506401 v 25.536504 c 0,2.06821 1.65244497,3.75064 3.68379437,3.75064 H 28.42247 c 2.03135,0 3.683795,-1.68243 3.683795,-3.75064 v -2.625448 h 3.331202 c 1.115663,0 2.178701,-0.364349 2.983875,-1.018031 0.86306,-0.701906 1.363002,-1.698504 1.363002,-2.73261 V 4.0241362 c 0,-1.0341051 -0.499942,-2.0307039 -1.363002,-2.7326096 z M 30.001239,14.46699 H 2.4306695 v -4.066765 c 0,-0.8840792 0.710446,-1.6074173 1.578769,-1.6074173 H 28.42247 c 0.868323,0 1.578769,0.7233381 1.578769,1.6074173 z m 0,21.469739 c 0,0.884079 -0.710446,1.607418 -1.578769,1.607418 H 4.0094385 c -0.868323,0 -1.578769,-0.723339 -1.578769,-1.607418 V 15.538603 H 30.001239 Z m 7.67808,-6.376089 c 0,0.873363 -1.026199,1.607417 -2.241852,1.607417 H 32.106265 V 10.400225 c 0,-2.06821 -1.652445,-3.7506401 -3.683795,-3.7506401 H 10.10875 V 4.0241362 c 0,-0.8733635 1.026198,-1.6074174 2.241852,-1.6074174 h 23.086865 c 1.215653,0 2.241852,0.7340539 2.241852,1.6074174 z"
     fill="#005bff"
     id="path6"
     style="stroke-width:0.0531009" />
  <path
     d="m 21.491675,12.53809 h -7.588617 c -0.520993,0 -0.941999,-0.428644 -0.941999,-0.959093 0,-0.530446 0.421006,-0.959091 0.941999,-0.959091 h 7.588617 c 0.520993,0 0.941997,0.428645 0.941997,0.959091 0,0.530449 -0.421004,0.959093 -0.941997,0.959093 z"
     fill="#ffffff"
     id="path8"
     style="stroke-width:0.0531009" />
  <path
     d="M 10.077174,35.743839 H 5.7566094 c -0.8735854,0 -1.5787688,-0.717981 -1.5787688,-1.607417 V 17.103154 h 5.8993334 z m 16.619175,0 H 11.898022 V 17.103154 H 28.28038 v 17.033268 c -0.0053,0.889436 -0.710445,1.607417 -1.584031,1.607417 z"
     fill="#ffffff"
     id="path10"
     style="stroke-width:0.0531009" />
  <path
     d="m 5.3303418,11.578997 m -0.9840992,0 a 0.98409945,1.0019569 0 1 0 1.9681989,0 0.98409945,1.0019569 0 1 0 -1.9681989,0 z"
     fill="#ffffff"
     id="path12"
     style="stroke-width:0.0531009" />
  <path
     d="m 8.5089304,11.578997 m -0.9840993,0 a 0.98409937,1.0019568 0 1 0 1.9681983,0 0.98409937,1.0019568 0 1 0 -1.9681983,0 z"
     fill="#ffffff"
     id="path14"
     style="stroke-width:0.0531009" />
  <path
     d="m 5.0724763,32.898709 c -0.1263015,0 -0.2473405,-0.04287 -0.3473292,-0.13395 -0.215765,-0.198248 -0.2368152,-0.535806 -0.042101,-0.755486 l 6.3571769,-7.286958 6.367702,1.843171 10.088334,-7.08871 c 0.236815,-0.166101 0.568357,-0.107162 0.731496,0.13395 0.16314,0.241114 0.105251,0.57867 -0.131564,0.744772 l -10.504077,7.372686 -6.209824,-1.79495 -5.9203845,6.783302 c -0.099989,0.117876 -0.2473402,0.182173 -0.3894292,0.182173 z"
     fill="#005bff"
     id="path16"
     style="stroke-width:0.0531009" />
  <path
     d="m 17.944706,32.421842 -6.909744,-9.301588 -6.4834795,2.775474 c -0.2683907,0.11252 -0.5788819,-0.01071 -0.6893958,-0.283977 -0.1105138,-0.273259 0.010525,-0.589385 0.2789159,-0.701905 l 7.2360234,-3.102316 6.52558,8.792573 8.88847,-13.004006 c 0.168401,-0.241111 0.494681,-0.305409 0.731495,-0.133952 0.236817,0.171459 0.299968,0.503657 0.131565,0.74477 z"
     fill="#06f3ff"
     id="path18"
     style="stroke-width:0.0531009" />
</svg>
